<svg version="1.1" id="Capa_1" xmlns="http://www.w3.org/2000/svg" xmlns:xlink="http://www.w3.org/1999/xlink" x="0px" y="0px" viewBox="0 0 612.002 612.002" style="enable-background:new 0 0 612.002 612.002;" xml:space="preserve">
  <g>
    <g>
      <g>
        <path d="M542.132,251.312l-472.23-0.045c-9.572,0-17.332,7.761-17.335,17.332l-0.029,326.023
c-0.001,9.572,7.759,17.332,17.331,17.334l472.23,0.045c9.572,0,17.332-7.761,17.335-17.332l0.029-326.023
C559.465,259.073,551.704,251.312,542.132,251.312z M497.89,285.971L305.995,463.563L114.138,285.937L497.89,285.971z
M87.229,308.264l68.739,63.642l-68.752,65.057L87.229,308.264z M524.77,577.333l-437.565-0.04l0.009-92.597l94.25-89.19
l112.756,104.392c3.322,3.075,7.55,4.613,11.775,4.613c4.226,0,8.452-1.535,11.773-4.61l112.776-104.372l94.234,89.207
L524.77,577.333z M524.783,437.006l-68.741-65.075l68.752-63.627L524.783,437.006z"/>
        <path d="M128.881,154.287l72.798,0.007l-0.003,47.605c-0.003,9.572,7.758,17.334,17.33,17.334l174.031,0.016
         c9.572,0,17.332-7.759,17.332-17.331l0.006-47.605l72.796,0.007c0.009-0.001,0.02-0.001,0.032-0.001
         c9.572,0.001,17.332-7.758,17.332-17.33c0.003-6.266-3.323-11.756-8.305-14.802L315.742,2.97
         c-5.863-3.959-13.541-3.96-19.404-0.003L119.182,122.59c-6.313,4.264-9.104,12.15-6.875,19.434
         C114.537,149.311,121.262,154.287,128.881,154.287z M306.037,38.247l120.507,81.403l-33.499-0.003 c-9.572-0.001-17.332,7.759-17.335,17.331l-0.003,47.606l-139.366-0.014l0.004-47.606c0.001-9.572-7.759-17.332-17.331-17.334 l-33.498-0.003L306.037,38.247z"/>
      </g>
    </g>
  </g>
</svg>
